# xmcd
#
# Track frame offsets: 
#        150
#        16890
#        32787
#        48358
#        69666
#        81468
#        94837
#        107819
#        120530
#        137757
#        151064
#
# Disc length: 2322 seconds
#
# Revision: 0
# Processed by: cddbd v1.5.2PL0 Copyright (c) Steve Scherf et al.
# Submitted via: ExactAudioCopy v0.99pb3
#
DISCID=8c09100b
DTITLE=Waco Brothers and Paul Burch - Great Chicago Fire
DYEAR=2012
DGENRE=Rock
TTITLE0=Great Chicago Fire
TTITLE1=Give In
TTITLE2=Wrong Side of Love
TTITLE3=Flight to Spain
TTITLE4=Cannonball
TTITLE5=Monterey
TTITLE6=Someone That You Know
TTITLE7=Transfusion Blues
TTITLE8=On the Sly
TTITLE9=Up on the Mountain
TTITLE10=Hard Rain's Gonna Fall
EXTD=
EXTT0=
EXTT1=
EXTT2=
EXTT3=
EXTT4=
EXTT5=
EXTT6=
EXTT7=
EXTT8=
EXTT9=
EXTT10=
PLAYORDER=
